<?xml version="1.0" standalone="yes" ?>
<svg width="64" height="64" xmlns="http://www.w3.org/2000/svg" xmlns:svg="http://www.w3.org/2000/svg">
<g>
  <!-- E -->
  <path style="fill:#d554cb;stroke:none;" d="M0 0L0 29L29 29L29 0L0 0z"/>
  <path style="fill:#fdfeff;stroke:none;" d="M9 6L9 23L19 23L19 22L10 22L10 15L17.5 15L17.5 14L10 14L10 7L19 7L19 6z"/>
  <!-- V -->
  <path style="fill:#57c639;stroke:none;" d="M35 0L35 29L64 29L64 0L35 0z"/>
  <path style="fill:#fdfeff;stroke:none;" d="M42 6.5L49 23.5L50 23.5L57 6.5L55.7 6.5L49.5 22.2L43.3 6.5z"/>
  <!-- D -->
  <path style="fill:#ff6d00;stroke:none;" d="M0 35L0 64L29 64L29 35L0 35z"/>
  <path style="fill:#fdfeff;stroke:none;" d="M8 41L8 58L16 58L9 57L9 42L16 42L8 41z"/>
  <path style="fill:#ff6d00;stroke:none;" d="M10 42L10 57C23.3471 56.6773 23.258 42.3205 10 42z"/>
  <!-- O -->
  <path style="fill:#5099ff;stroke:none;" d="M35 35L35 64L64 64L64 35L35 35z"/>
  <path style="fill:#5099ff;stroke:none;" d="M47.1088 42.7469C39.5529 45.8383 43.5527 59.4864 51.9414 56.3812C59.5862 53.5513 55.7254 39.2215 47.1088 42.7469z"/>
  <path style="fill:#fdfeff;stroke:none;" d="M19 43L20 44L19 43z"/>
</g>
</svg>
