<?xml version="1.0"?><svg width="533.3333333333333" height="533.3333333333333" xmlns="http://www.w3.org/2000/svg">

 <g>
  <title>Layer 1</title>
  <path transform="rotate(46.02833938598633 274.13021850585926,262.1309204101563) " fill="none" fill-rule="evenodd" stroke="#bf0000" stroke-width="37.1167" id="path566" d="m495.303802,262.130676c0,-125.226013 -99.022797,-226.741783 -221.173615,-226.741783c-122.150818,0 -221.173615,101.51577 -221.173615,226.741783c0.000046,125.226379 99.022888,226.742371 221.173737,226.74231c122.150818,-0.000031 221.173615,-101.516113 221.173553,-226.742493l-221.173676,0.000183l221.173615,0z"/>
  <path fill-rule="evenodd" fill="none" stroke-width="1pt" id="path575" d="m445.611237,251.240189c0.032166,-115.39444 -93.835022,-208.957085 -209.637177,-208.957085c-115.80217,0 -209.669373,93.562645 -209.637207,208.957085c-0.000092,115.372086 93.857574,208.899734 209.636963,208.899857c115.779388,0.000092 209.637238,-93.527405 209.63736,-208.899475l-209.637115,-0.000381l209.637177,0z"/>
  <path fill="#ffffff" fill-rule="evenodd" stroke-width="1pt" fill-opacity="0.577778" id="path564" d="m117.569962,339.138519c0,-1.817993 -11.812996,-66.340973 0,-91.786972c21.811005,-39.078003 31.807007,-74.518997 33.625,-104.51001c0.908997,0.908997 1.818008,48.165009 -1.817993,53.618011c-10.904999,20.901993 -21.810005,44.530991 -29.080002,67.249985c0,44.529999 -1.818001,79.063995 -2.727005,75.428986z"/>
  <path fill="none" fill-rule="evenodd" stroke="#bf0000" stroke-width="37.5" id="path567" d="m112.200783,91.059654l292.310997,307.074501"/>
 </g>
</svg>